<mxfile host="app.diagrams.net" modified="2024-06-24T14:28:01.529Z" agent="Mozilla/5.0 (Windows NT 10.0; Win64; x64) AppleWebKit/537.36 (KHTML, like Gecko) Chrome/126.0.0.0 Safari/537.36" etag="FAacaCF1t8dmWvTksb_u" version="24.6.2" type="device">
  <diagram name="Seite-1" id="NDR3mnikh9q_f2Nxi1ZF">
    <mxGraphModel dx="890" dy="384" grid="1" gridSize="10" guides="1" tooltips="1" connect="1" arrows="1" fold="1" page="1" pageScale="1" pageWidth="827" pageHeight="1169" math="0" shadow="0">
      <root>
        <mxCell id="0" />
        <mxCell id="1" parent="0" />
        <mxCell id="LJkc8kywVHEcN_hv7QL5-4" style="edgeStyle=orthogonalEdgeStyle;rounded=0;orthogonalLoop=1;jettySize=auto;html=1;exitX=1;exitY=0.3333333333333333;exitDx=0;exitDy=0;exitPerimeter=0;entryX=0;entryY=0.5;entryDx=0;entryDy=0;" edge="1" parent="1" source="LJkc8kywVHEcN_hv7QL5-1" target="LJkc8kywVHEcN_hv7QL5-3">
          <mxGeometry relative="1" as="geometry" />
        </mxCell>
        <mxCell id="LJkc8kywVHEcN_hv7QL5-1" value="Actor" style="shape=umlActor;verticalLabelPosition=bottom;verticalAlign=top;html=1;outlineConnect=0;" vertex="1" parent="1">
          <mxGeometry x="70" y="220" width="30" height="60" as="geometry" />
        </mxCell>
        <mxCell id="LJkc8kywVHEcN_hv7QL5-2" value="Game" style="swimlane;whiteSpace=wrap;html=1;" vertex="1" parent="1">
          <mxGeometry x="180" y="90" width="400" height="310" as="geometry" />
        </mxCell>
        <mxCell id="LJkc8kywVHEcN_hv7QL5-6" style="edgeStyle=orthogonalEdgeStyle;rounded=0;orthogonalLoop=1;jettySize=auto;html=1;exitX=1;exitY=0.5;exitDx=0;exitDy=0;entryX=0;entryY=0.5;entryDx=0;entryDy=0;" edge="1" parent="LJkc8kywVHEcN_hv7QL5-2" source="LJkc8kywVHEcN_hv7QL5-3" target="LJkc8kywVHEcN_hv7QL5-5">
          <mxGeometry relative="1" as="geometry" />
        </mxCell>
        <mxCell id="LJkc8kywVHEcN_hv7QL5-22" style="edgeStyle=orthogonalEdgeStyle;rounded=0;orthogonalLoop=1;jettySize=auto;html=1;entryX=0.5;entryY=0;entryDx=0;entryDy=0;" edge="1" parent="LJkc8kywVHEcN_hv7QL5-2" source="LJkc8kywVHEcN_hv7QL5-3" target="LJkc8kywVHEcN_hv7QL5-23">
          <mxGeometry relative="1" as="geometry">
            <mxPoint x="55" y="110" as="targetPoint" />
          </mxGeometry>
        </mxCell>
        <mxCell id="LJkc8kywVHEcN_hv7QL5-3" value="&lt;font style=&quot;font-size: 8px;&quot;&gt;Start game&lt;/font&gt;" style="ellipse;whiteSpace=wrap;html=1;" vertex="1" parent="LJkc8kywVHEcN_hv7QL5-2">
          <mxGeometry x="20" y="40" width="70" height="40" as="geometry" />
        </mxCell>
        <mxCell id="LJkc8kywVHEcN_hv7QL5-16" style="edgeStyle=orthogonalEdgeStyle;rounded=0;orthogonalLoop=1;jettySize=auto;html=1;exitX=1;exitY=0.5;exitDx=0;exitDy=0;entryX=0;entryY=0.5;entryDx=0;entryDy=0;" edge="1" parent="LJkc8kywVHEcN_hv7QL5-2" source="LJkc8kywVHEcN_hv7QL5-5" target="LJkc8kywVHEcN_hv7QL5-15">
          <mxGeometry relative="1" as="geometry" />
        </mxCell>
        <mxCell id="LJkc8kywVHEcN_hv7QL5-18" style="edgeStyle=orthogonalEdgeStyle;rounded=0;orthogonalLoop=1;jettySize=auto;html=1;entryX=0;entryY=0.5;entryDx=0;entryDy=0;" edge="1" parent="LJkc8kywVHEcN_hv7QL5-2" source="LJkc8kywVHEcN_hv7QL5-5" target="LJkc8kywVHEcN_hv7QL5-17">
          <mxGeometry relative="1" as="geometry">
            <Array as="points">
              <mxPoint x="155" y="130" />
            </Array>
          </mxGeometry>
        </mxCell>
        <mxCell id="LJkc8kywVHEcN_hv7QL5-21" style="edgeStyle=orthogonalEdgeStyle;rounded=0;orthogonalLoop=1;jettySize=auto;html=1;entryX=0;entryY=0.5;entryDx=0;entryDy=0;" edge="1" parent="LJkc8kywVHEcN_hv7QL5-2" source="LJkc8kywVHEcN_hv7QL5-5" target="LJkc8kywVHEcN_hv7QL5-19">
          <mxGeometry relative="1" as="geometry">
            <Array as="points">
              <mxPoint x="155" y="200" />
            </Array>
          </mxGeometry>
        </mxCell>
        <mxCell id="LJkc8kywVHEcN_hv7QL5-25" style="edgeStyle=orthogonalEdgeStyle;rounded=0;orthogonalLoop=1;jettySize=auto;html=1;entryX=1;entryY=0.5;entryDx=0;entryDy=0;" edge="1" parent="LJkc8kywVHEcN_hv7QL5-2" source="LJkc8kywVHEcN_hv7QL5-5" target="LJkc8kywVHEcN_hv7QL5-24">
          <mxGeometry relative="1" as="geometry">
            <Array as="points">
              <mxPoint x="155" y="130" />
              <mxPoint x="120" y="130" />
              <mxPoint x="120" y="200" />
            </Array>
          </mxGeometry>
        </mxCell>
        <mxCell id="LJkc8kywVHEcN_hv7QL5-5" value="&lt;span style=&quot;font-size: 8px;&quot;&gt;Load game&lt;/span&gt;" style="ellipse;whiteSpace=wrap;html=1;" vertex="1" parent="LJkc8kywVHEcN_hv7QL5-2">
          <mxGeometry x="120" y="40" width="70" height="40" as="geometry" />
        </mxCell>
        <mxCell id="LJkc8kywVHEcN_hv7QL5-30" style="edgeStyle=orthogonalEdgeStyle;rounded=0;orthogonalLoop=1;jettySize=auto;html=1;entryX=0;entryY=0.5;entryDx=0;entryDy=0;" edge="1" parent="LJkc8kywVHEcN_hv7QL5-2" source="LJkc8kywVHEcN_hv7QL5-15" target="LJkc8kywVHEcN_hv7QL5-29">
          <mxGeometry relative="1" as="geometry" />
        </mxCell>
        <mxCell id="LJkc8kywVHEcN_hv7QL5-15" value="&lt;span style=&quot;font-size: 8px;&quot;&gt;Move player&lt;/span&gt;" style="ellipse;whiteSpace=wrap;html=1;" vertex="1" parent="LJkc8kywVHEcN_hv7QL5-2">
          <mxGeometry x="214" y="40" width="70" height="40" as="geometry" />
        </mxCell>
        <mxCell id="LJkc8kywVHEcN_hv7QL5-31" style="edgeStyle=orthogonalEdgeStyle;rounded=0;orthogonalLoop=1;jettySize=auto;html=1;entryX=0.5;entryY=1;entryDx=0;entryDy=0;" edge="1" parent="LJkc8kywVHEcN_hv7QL5-2" source="LJkc8kywVHEcN_hv7QL5-17" target="LJkc8kywVHEcN_hv7QL5-29">
          <mxGeometry relative="1" as="geometry" />
        </mxCell>
        <mxCell id="LJkc8kywVHEcN_hv7QL5-34" style="edgeStyle=orthogonalEdgeStyle;rounded=0;orthogonalLoop=1;jettySize=auto;html=1;exitX=0.5;exitY=1;exitDx=0;exitDy=0;entryX=0.5;entryY=0;entryDx=0;entryDy=0;" edge="1" parent="LJkc8kywVHEcN_hv7QL5-2" source="LJkc8kywVHEcN_hv7QL5-17" target="LJkc8kywVHEcN_hv7QL5-33">
          <mxGeometry relative="1" as="geometry">
            <Array as="points">
              <mxPoint x="249" y="160" />
              <mxPoint x="175" y="160" />
            </Array>
          </mxGeometry>
        </mxCell>
        <mxCell id="LJkc8kywVHEcN_hv7QL5-17" value="&lt;span style=&quot;font-size: 8px;&quot;&gt;Fight enemy&lt;/span&gt;" style="ellipse;whiteSpace=wrap;html=1;" vertex="1" parent="LJkc8kywVHEcN_hv7QL5-2">
          <mxGeometry x="214" y="110" width="70" height="40" as="geometry" />
        </mxCell>
        <mxCell id="LJkc8kywVHEcN_hv7QL5-19" value="&lt;span style=&quot;font-size: 8px;&quot;&gt;Interact with ambient&lt;/span&gt;" style="ellipse;whiteSpace=wrap;html=1;" vertex="1" parent="LJkc8kywVHEcN_hv7QL5-2">
          <mxGeometry x="214" y="180" width="70" height="40" as="geometry" />
        </mxCell>
        <mxCell id="LJkc8kywVHEcN_hv7QL5-23" value="&lt;span style=&quot;font-size: 8px;&quot;&gt;Change settings&lt;/span&gt;" style="ellipse;whiteSpace=wrap;html=1;" vertex="1" parent="LJkc8kywVHEcN_hv7QL5-2">
          <mxGeometry x="20" y="110" width="70" height="40" as="geometry" />
        </mxCell>
        <mxCell id="LJkc8kywVHEcN_hv7QL5-26" style="edgeStyle=orthogonalEdgeStyle;rounded=0;orthogonalLoop=1;jettySize=auto;html=1;exitX=0.5;exitY=1;exitDx=0;exitDy=0;" edge="1" parent="LJkc8kywVHEcN_hv7QL5-2" source="LJkc8kywVHEcN_hv7QL5-24" target="LJkc8kywVHEcN_hv7QL5-27">
          <mxGeometry relative="1" as="geometry">
            <mxPoint x="65.125" y="240" as="targetPoint" />
          </mxGeometry>
        </mxCell>
        <mxCell id="LJkc8kywVHEcN_hv7QL5-24" value="&lt;span style=&quot;font-size: 8px;&quot;&gt;Save game&lt;/span&gt;" style="ellipse;whiteSpace=wrap;html=1;" vertex="1" parent="LJkc8kywVHEcN_hv7QL5-2">
          <mxGeometry x="30" y="180" width="70" height="40" as="geometry" />
        </mxCell>
        <mxCell id="LJkc8kywVHEcN_hv7QL5-27" value="&lt;span style=&quot;font-size: 8px;&quot;&gt;Exit game&lt;/span&gt;" style="ellipse;whiteSpace=wrap;html=1;" vertex="1" parent="LJkc8kywVHEcN_hv7QL5-2">
          <mxGeometry x="30" y="250" width="70" height="40" as="geometry" />
        </mxCell>
        <mxCell id="LJkc8kywVHEcN_hv7QL5-38" style="edgeStyle=orthogonalEdgeStyle;rounded=0;orthogonalLoop=1;jettySize=auto;html=1;entryX=0.5;entryY=0;entryDx=0;entryDy=0;" edge="1" parent="LJkc8kywVHEcN_hv7QL5-2" source="LJkc8kywVHEcN_hv7QL5-29" target="LJkc8kywVHEcN_hv7QL5-5">
          <mxGeometry relative="1" as="geometry">
            <Array as="points">
              <mxPoint x="340" y="30" />
              <mxPoint x="155" y="30" />
            </Array>
          </mxGeometry>
        </mxCell>
        <mxCell id="LJkc8kywVHEcN_hv7QL5-29" value="&lt;span style=&quot;font-size: 8px;&quot;&gt;Die&lt;/span&gt;" style="ellipse;whiteSpace=wrap;html=1;" vertex="1" parent="LJkc8kywVHEcN_hv7QL5-2">
          <mxGeometry x="310" y="40" width="70" height="40" as="geometry" />
        </mxCell>
        <mxCell id="LJkc8kywVHEcN_hv7QL5-32" style="edgeStyle=orthogonalEdgeStyle;rounded=0;orthogonalLoop=1;jettySize=auto;html=1;entryX=0.649;entryY=0.948;entryDx=0;entryDy=0;entryPerimeter=0;" edge="1" parent="LJkc8kywVHEcN_hv7QL5-2" source="LJkc8kywVHEcN_hv7QL5-19" target="LJkc8kywVHEcN_hv7QL5-29">
          <mxGeometry relative="1" as="geometry" />
        </mxCell>
        <mxCell id="LJkc8kywVHEcN_hv7QL5-37" style="edgeStyle=orthogonalEdgeStyle;rounded=0;orthogonalLoop=1;jettySize=auto;html=1;entryX=0;entryY=0.5;entryDx=0;entryDy=0;" edge="1" parent="LJkc8kywVHEcN_hv7QL5-2" source="LJkc8kywVHEcN_hv7QL5-33" target="LJkc8kywVHEcN_hv7QL5-36">
          <mxGeometry relative="1" as="geometry" />
        </mxCell>
        <mxCell id="LJkc8kywVHEcN_hv7QL5-33" value="&lt;span style=&quot;font-size: 8px;&quot;&gt;Defeat final boss&lt;/span&gt;" style="ellipse;whiteSpace=wrap;html=1;" vertex="1" parent="LJkc8kywVHEcN_hv7QL5-2">
          <mxGeometry x="140" y="240" width="70" height="40" as="geometry" />
        </mxCell>
        <mxCell id="LJkc8kywVHEcN_hv7QL5-36" value="&lt;span style=&quot;font-size: 8px;&quot;&gt;End story&lt;/span&gt;" style="ellipse;whiteSpace=wrap;html=1;" vertex="1" parent="LJkc8kywVHEcN_hv7QL5-2">
          <mxGeometry x="310" y="240" width="70" height="40" as="geometry" />
        </mxCell>
      </root>
    </mxGraphModel>
  </diagram>
</mxfile>
